<svg
                        width="48" height="48" viewBox="0 0 105 100"
                        fill="none"
                        xmlns="http://www.w3.org/2000/svg"
                    >
                        <path
                            fill-rule="evenodd"
                            clip-rule="evenodd"
                            d="M63.5076 0L46.221 0.369081L50.8373 10.9656L78.2329 10.9267C83.2972 10.9559 86.5402 11.4318 88.2738 15.3168C90.1631 19.5613 88.5075 23.6406 85.7514 25.5928C81.924 28.3026 64.3355 27.1371 58.1999 27.0303L63.0499 37.9473L78.4082 37.889C82.9368 37.889 84.4561 38.0541 86.9103 40.5697C88.7705 42.4734 89.7736 46.0574 88.4588 49.1557C85.8196 55.3427 78.3011 54.0606 70.7826 54.0606C56.5248 54.0606 60.2061 55.3621 56.4274 47.7959C55.288 45.5232 54.1777 43.2698 52.9993 40.9485C50.7204 36.471 48.4902 31.9255 46.2308 27.3702C43.796 22.4459 33.5604 1.31121 32.2262 0.650747L0 64.8805L11.1706 64.9387C12.6606 64.9387 13.5956 61.6656 14.2189 60.4321C16.2835 56.3528 20.7439 48.2039 22.0684 45.0472C23.7922 40.9582 29.918 28.3901 32.4599 24.5341C33.0442 25.078 41.4197 42.1043 42.715 44.6782C43.9324 47.1063 52.6292 64.9485 53.2233 64.9485H80.7261C89.3548 64.9485 95.4027 59.7813 98.188 53.9149C99.8339 50.4475 100.438 45.9699 99.493 41.6672C98.1978 35.7814 95.2371 34.1205 94.3606 32.4305C99.6196 26.8263 102.463 17.2399 97.1946 9.28529C90.3189 -1.08782 83.19 0.0874138 70.0814 0.0971264L63.5076 0Z"
                            stroke="#ff6b00" stroke-width="2"
                        />
                    </svg>