<svg
                width="100"
                height="96"
                viewBox="0 0 100 96"
                fill="none"
                xmlns="http://www.w3.org/2000/svg"
            >
                <path
                    d="M33.3333 66.6667H66.6667V70.8334H33.3333V66.6667ZM97.9167 20.8334H2.08333C0.9375 20.8334 0 21.6875 0 22.8334V66.6667H29.1667V64.5834C29.1667 63.4334 30.1 62.5 31.25 62.5H68.75C69.9 62.5 70.8333 63.4334 70.8333 64.5834V66.6667H100V22.8334C100 21.6875 99.0625 20.8334 97.9167 20.8334Z"
                    fill="#FF6B00"
                />
                <path
                    d="M100 70.8333V93.7167C100 94.8625 99.0625 95.8333 97.9167 95.8333H2.08333C0.9375 95.8333 0 94.8625 0 93.7167V70.8333H29.1667V72.9167C29.1667 74.0667 30.1 75 31.25 75H68.75C69.9 75 70.8333 74.0667 70.8333 72.9167V70.8333H100ZM64.5833 0H35.4167C25.65 0 16.6667 3.15833 16.6667 20.8167H25C25 8.2375 29.775 8.33333 35.4167 8.33333H64.5833C70.225 8.33333 75 8.2375 75 20.8167H83.3333C83.3333 3.15833 74.35 0 64.5833 0Z"
                    fill="white"
                />
            </svg>